<svg xmlns="http://www.w3.org/2000/svg" viewBox="0 0 100 100"><g id="Camada_5" data-name="Camada 5"><path d="M26.43,60.91H23a1.51,1.51,0,0,1-.95-.28,1.72,1.72,0,0,1-.54-.72l-5.62-15.4a1.18,1.18,0,0,0-2.21,0L8.06,59.91a1.58,1.58,0,0,1-.52.69,1.47,1.47,0,0,1-1,.31H3.14l9.38-23.86h4.54Z"/><path d="M96.86,60.91H93.43a1.49,1.49,0,0,1-1-.28,1.72,1.72,0,0,1-.54-.72l-5.62-15.4a1.18,1.18,0,0,0-2.21,0l-5.62,15.4a1.58,1.58,0,0,1-.52.69,1.47,1.47,0,0,1-1,.31H73.57l9.37-23.86h4.54Z"/><path d="M63,56.88A4.91,4.91,0,0,0,65,56.46a4.26,4.26,0,0,0,1.54-1.18,5.28,5.28,0,0,0,1-1.84A8,8,0,0,0,67.87,51V37h4V51a11.7,11.7,0,0,1-.61,3.86,8.78,8.78,0,0,1-1.77,3.05,8.09,8.09,0,0,1-2.8,2,9.89,9.89,0,0,1-7.41,0,8,8,0,0,1-2.8-2,8.91,8.91,0,0,1-1.76-3.05A11.7,11.7,0,0,1,54.09,51V37h4V51a8,8,0,0,0,.34,2.43,5.48,5.48,0,0,0,1,1.85,4.34,4.34,0,0,0,1.53,1.19A4.91,4.91,0,0,0,63,56.88Z"/><path d="M47,56.21a11.54,11.54,0,0,0,1-9.55,12.13,12.13,0,0,0-3.21-4.86l-6.27-5.94a.72.72,0,0,0-1,0l-7,7a11,11,0,0,0-2.93,7.34,10.11,10.11,0,0,0,2.76,7.28c5.51,6.18,12.79,2.11,13.6,1.56.46-.31,1,.12,1.33.56a3.16,3.16,0,0,0,1.8,1.07,9.47,9.47,0,0,0,3.78,0Zm-9,1h0a7.58,7.58,0,0,1-7.16-6.85,5.27,5.27,0,0,1,1.39-4.19l5.27-5.59a1,1,0,0,1,1.44,0l4.67,4.67a6.39,6.39,0,0,1,1.85,4.51A7.35,7.35,0,0,1,38,57.18Z"/><path d="M38.77,52.29h2.3a3.86,3.86,0,0,1,2.76,1.15h0l-2.86,2-2.41-2.63A.29.29,0,0,1,38.77,52.29Z"/></g></svg>